<svg width="30" height="28" viewBox="0 0 30 28" fill="none" xmlns="http://www.w3.org/2000/svg">
<path d="M0 2.14742C0 1.66906 0.169324 1.21029 0.470721 0.872032C0.772119 0.533779 1.1809 0.34375 1.60714 0.34375H28.3929C28.8191 0.34375 29.2279 0.533779 29.5293 0.872032C29.8307 1.21029 30 1.66906 30 2.14742C30 2.62578 29.8307 3.08455 29.5293 3.4228C29.2279 3.76106 28.8191 3.95109 28.3929 3.95109H1.60714C1.1809 3.95109 0.772119 3.76106 0.470721 3.4228C0.169324 3.08455 0 2.62578 0 2.14742ZM0 14.1719C0 13.6935 0.169324 13.2347 0.470721 12.8965C0.772119 12.5582 1.1809 12.3682 1.60714 12.3682H28.3929C28.8191 12.3682 29.2279 12.5582 29.5293 12.8965C29.8307 13.2347 30 13.6935 30 14.1719C30 14.6502 29.8307 15.109 29.5293 15.4473C29.2279 15.7855 28.8191 15.9755 28.3929 15.9755H1.60714C1.1809 15.9755 0.772119 15.7855 0.470721 15.4473C0.169324 15.109 0 14.6502 0 14.1719ZM1.60714 24.3927H28.3929C28.8191 24.3927 29.2279 24.5827 29.5293 24.9209C29.8307 25.2592 30 25.718 30 26.1963C30 26.6747 29.8307 27.1335 29.5293 27.4717C29.2279 27.81 28.8191 28 28.3929 28H1.60714C1.1809 28 0.772119 27.81 0.470721 27.4717C0.169324 27.1335 0 26.6747 0 26.1963C0 25.718 0.169324 25.2592 0.470721 24.9209C0.772119 24.5827 1.1809 24.3927 1.60714 24.3927Z" fill="#FD2C3D"/>
</svg>
