<svg width="30" height="30" viewBox="0 0 30 30" fill="none" xmlns="http://www.w3.org/2000/svg">
<path d="M29.3618 26.3332C29.7642 26.7356 29.9902 27.2812 29.9902 27.8502C29.9902 28.4192 29.7642 28.9649 29.3618 29.3672C28.9595 29.7695 28.4138 29.9956 27.8449 29.9956C27.2759 29.9956 26.7302 29.7695 26.3279 29.3672L14.9969 18.0326L3.66233 29.3636C3.26 29.766 2.71432 29.992 2.14534 29.992C1.57636 29.992 1.03069 29.766 0.628356 29.3636C0.226027 28.9613 5.99518e-09 28.4156 0 27.8466C-5.99518e-09 27.2777 0.226027 26.732 0.628356 26.3297L11.9629 14.9987L0.631925 3.66411C0.229595 3.26178 0.00356945 2.71611 0.00356946 2.14713C0.00356947 1.57815 0.229595 1.03247 0.631925 0.630141C1.03425 0.227811 1.57993 0.0017844 2.14891 0.00178439C2.71789 0.00178438 3.26357 0.227811 3.6659 0.630141L14.9969 11.9647L26.3314 0.628356C26.7338 0.226026 27.2794 -9.47921e-09 27.8484 0C28.4174 9.47921e-09 28.9631 0.226026 29.3654 0.628356C29.7677 1.03069 29.9938 1.57636 29.9938 2.14534C29.9938 2.71432 29.7677 3.26 29.3654 3.66233L18.0309 14.9987L29.3618 26.3332Z" fill="#9F9F9F"/>
</svg>
