<svg width="186" height="890" viewBox="0 0 186 890" fill="none" xmlns="http://www.w3.org/2000/svg">
<path d="M186 171.591L186 243.161C168.325 240.569 150.65 237.977 132.974 235.385C115.487 232.911 97.906 230.378 80.2308 227.786C62.5555 225.194 44.8803 222.603 27.2051 220.011C9.71795 217.537 -7.86326 215.063 -25.5385 212.589L-25.5385 130.416L80.5128 119.813C80.7008 119.813 80.7949 119.754 80.7949 119.636C80.9829 119.636 81.0769 119.636 81.0769 119.636C81.0769 119.636 81.0769 119.577 81.0769 119.46C81.0769 119.46 80.9829 119.401 80.7949 119.283C80.7949 119.283 80.7008 119.283 80.5128 119.283L-25.5385 108.857L-25.5385 32.1622C-11.4359 30.0416 2.66669 27.921 16.7692 25.8005C30.8718 23.6799 44.9744 21.5004 59.0769 19.262C73.1795 17.1414 87.2821 15.0208 101.385 12.9002C115.487 10.7796 129.59 8.60015 143.692 6.36176C157.795 4.24117 171.897 2.12059 186 0L186 75.2808C176.41 76.2233 166.726 77.1069 156.949 77.9315C147.359 78.874 137.769 79.7576 128.179 80.5823C118.59 81.5247 108.906 82.4672 99.1282 83.4097C89.5385 84.3522 79.9487 85.2358 70.359 86.0604C70.359 86.0604 70.359 86.1193 70.359 86.2372C70.359 86.355 70.359 86.4728 70.359 86.5906C70.359 86.7084 70.359 86.7673 70.359 86.7673C70.359 86.8851 70.359 86.944 70.359 86.944L186 96.8401L186 150.031L70.359 160.458C70.359 160.575 70.359 160.634 70.359 160.634C70.359 160.752 70.359 160.811 70.359 160.811C89.7265 162.578 109 164.345 128.179 166.113C147.359 167.998 166.632 169.824 186 171.591Z" fill="#3A3A3A"/>
<path d="M-34 328.729C-34 321.425 -33.1539 314.357 -31.4615 307.524C-29.7692 300.691 -27.2308 294.329 -23.8462 288.438C-20.2735 282.548 -15.8547 277.187 -10.5897 272.357C-5.32478 267.527 0.786335 263.404 7.7436 259.987C14.8889 256.571 22.8803 253.92 31.7179 252.035C40.7436 250.15 50.7094 249.207 61.6154 249.207C74.4017 249.207 85.8718 250.503 96.0256 253.095C106.368 255.805 115.393 259.575 123.103 264.405C130.812 269.353 137.205 275.126 142.282 281.723C147.547 288.321 151.402 295.566 153.846 303.459C156.479 311.47 157.795 319.894 157.795 328.729C157.795 339.804 155.726 350.112 151.59 359.655C147.641 369.315 141.624 377.739 133.538 384.925C125.641 392.229 115.675 397.943 103.641 402.066C91.6068 406.19 77.5983 408.251 61.6154 408.251C45.6325 408.251 31.6239 406.19 19.5897 402.066C7.74359 397.943 -2.22223 392.229 -10.3077 384.925C-18.2051 377.739 -24.1282 369.315 -28.0769 359.655C-32.0257 350.112 -34 339.804 -34 328.729ZM40.7436 328.906C40.7436 336.21 43 341.394 47.5128 344.457C52.0256 347.52 56.9145 349.052 62.1795 349.052C64.6239 349.052 67.0684 348.698 69.5128 347.991C71.9573 347.285 74.2137 346.165 76.282 344.634C78.3504 343.102 79.9487 341.041 81.0769 338.449C82.3932 335.857 83.0513 332.676 83.0513 328.906C83.0513 325.136 82.3932 321.896 81.0769 319.187C79.9487 316.595 78.3504 314.474 76.282 312.825C74.2137 311.294 71.9573 310.174 69.5128 309.467C67.0684 308.761 64.5299 308.407 61.8974 308.407C59.2649 308.407 56.6325 308.761 54 309.467C51.5555 310.174 49.2991 311.352 47.2308 313.002C45.3504 314.651 43.7521 316.772 42.4359 319.364C41.3077 321.955 40.7436 325.136 40.7436 328.906Z" fill="#3A3A3A"/>
<path d="M149.333 566.963C134.667 564.135 120 561.308 105.333 558.48C90.8547 555.653 76.3761 552.825 61.8974 549.998C47.4188 547.288 32.8461 544.52 18.1795 541.692C3.70084 538.865 -10.8718 536.037 -25.5385 533.21L-25.5385 448.917C-13.8804 446.678 -2.22223 444.44 9.43588 442.201C21.094 439.963 32.7521 437.725 44.4102 435.486C56.0684 433.248 67.7265 430.951 79.3846 428.594C91.0427 426.356 102.701 424.118 114.359 421.879C126.017 419.641 137.675 417.402 149.333 415.164L149.333 480.019C142.752 480.725 136.171 481.373 129.59 481.962C123.197 482.669 116.709 483.376 110.128 484.083C103.547 484.79 96.9658 485.438 90.3846 486.027C83.8034 486.734 77.2222 487.441 70.641 488.148C64.0598 488.854 57.4786 489.502 50.8974 490.091C44.5043 490.798 38.0171 491.505 31.4359 492.212C30.4957 492.33 29.7436 492.389 29.1795 492.389C28.8034 492.507 28.6154 492.624 28.6154 492.742C28.6154 492.86 28.8034 492.919 29.1795 492.919C29.7436 493.037 30.4957 493.155 31.4359 493.272C38.0171 493.979 44.5043 494.627 50.8974 495.216C57.4786 495.923 64.0598 496.63 70.641 497.337C77.2222 498.044 83.8034 498.692 90.3846 499.281C96.9658 499.987 103.547 500.694 110.128 501.401C116.709 502.108 123.197 502.756 129.59 503.345C136.171 504.052 142.752 504.759 149.333 505.466L149.333 566.963Z" fill="#3A3A3A"/>
<path d="M38.2051 653.839C38.2051 660.083 39.9914 664.913 43.5641 668.33C47.1367 671.746 52.0256 673.513 58.2307 673.631L29.7436 728.236C17.8974 726.116 7.08545 721.58 -2.69232 714.629C-12.2821 707.796 -19.8975 699.137 -25.5385 688.652C-31.1795 678.167 -34 666.445 -34 653.486C-34 642.411 -32.0257 632.044 -28.0769 622.384C-24.1282 612.841 -18.2051 604.418 -10.3077 597.113C-2.22224 589.927 7.83759 584.272 19.8718 580.149C31.906 576.025 45.9145 573.964 61.8974 573.964C77.8803 573.964 91.8889 576.025 103.923 580.149C115.957 584.272 125.923 589.927 133.82 597.113C141.906 604.418 147.923 612.9 151.872 622.56C155.82 632.221 157.795 642.529 157.795 653.486C157.795 664.678 155.82 674.927 151.872 684.234C147.923 693.659 141.812 701.729 133.538 708.444C125.453 715.277 115.111 720.52 102.513 724.172C90.1025 727.942 75.3418 729.827 58.2307 729.827L58.2307 633.517C58.2307 633.517 58.2307 633.458 58.2307 633.34C58.2307 633.34 58.1367 633.34 57.9487 633.34C55.1282 633.34 52.4957 633.811 50.0513 634.754C47.6068 635.696 45.4444 636.992 43.5641 638.641C41.8718 640.409 40.5555 642.529 39.6154 645.003C38.6752 647.595 38.2051 650.54 38.2051 653.839ZM86.4359 653.486C86.4359 647.713 84.7436 642.942 81.359 639.172C78.1624 635.402 73.5555 633.517 67.5384 633.517C67.3504 633.517 67.1624 633.517 66.9743 633.517C66.9743 633.635 66.9743 633.693 66.9743 633.693L66.9743 673.101C66.9743 673.219 66.9743 673.278 66.9743 673.278C67.1624 673.278 67.3504 673.278 67.5384 673.278C70.547 673.278 73.1795 672.748 75.4359 671.687C77.8803 670.745 79.8547 669.39 81.3589 667.623C83.0513 665.856 84.2735 663.735 85.0256 661.261C85.9658 658.905 86.4359 656.313 86.4359 653.486Z" fill="#3A3A3A"/>
<path d="M-25.5385 828.856C-10.8718 828.856 3.98287 828.856 19.0256 828.856C34.0683 828.856 48.923 828.856 63.5897 828.856C69.0427 828.856 72.8974 827.973 75.1538 826.206C77.4102 824.556 78.6324 822.554 78.8205 820.197C79.0085 817.841 78.5384 815.662 77.4102 813.659C76.282 811.774 75.1538 810.596 74.0256 810.125L146.513 824.262C149.521 828.503 151.778 833.039 153.282 837.869C154.786 842.699 155.538 847.47 155.538 852.183C155.538 858.78 153.846 864.906 150.461 870.561C147.077 876.334 141.718 880.987 134.385 884.522C127.051 888.174 117.273 890 105.051 890L-25.5385 890L-25.5385 828.856ZM-25.5385 748.981C-13.5043 748.981 -1.47009 748.981 10.5641 748.981C22.7863 748.981 34.9145 748.981 46.9487 748.981C59.1709 748.981 71.2991 748.981 83.3333 748.981C94.4273 748.981 105.427 748.981 116.333 748.981C127.427 748.981 138.427 748.981 149.333 748.981C149.333 755.814 149.333 762.588 149.333 769.303C149.333 776.136 149.333 782.969 149.333 789.802C149.333 796.635 149.333 803.409 149.333 810.125C142.564 810.125 136.077 810.125 129.872 810.125C123.855 810.125 117.744 810.125 111.538 810.125C105.521 810.125 99.4102 810.125 93.2051 810.125C87.188 810.125 80.7948 810.125 74.0256 810.125C71.5812 810.125 69.1367 810.125 66.6923 810.125C64.4359 810.125 61.9914 810.125 59.3589 810.125C45.4444 810.125 31.1538 810.125 16.4871 810.125C1.82049 810.125 -12.1881 810.125 -25.5385 810.125L-25.5385 748.981Z" fill="#3A3A3A"/>
</svg>
